<svg viewBox="0 0 96430 96430" xmlns="http://www.w3.org/2000/svg">
  <polygon points="95895,48468 95895,49695 96430,49695 96430,50876 95657,50876 95657,52087 95669,52087 95669,53294 95599,53294 95599,54484 95376,54484 95376,55758 95695,55758 95695,56958 95479,56958 95479,58022 94621,58022 94621,59387 95152,59387 95152,60463 94437,60463 94437,61752 94519,61752 94519,62741 93594,62741 93594,63966 93435,63966 93435,65035 92827,65035 92827,66216 92519,66216 92519,67525 92482,67525 92482,68363 91382,68363 91382,69387 90725,69387 90725,70803 90820,70803 90820,71501 89567,71501 89567,72804 89398,72804 89398,73959 88946,73959 88946,74704 87861,74704 87861,76112 87756,76112 87756,77086 87006,77086 87006,77661 85752,77661 85752,78972 85436,78972 85436,79924 84663,79924 84663,80697 83691,80697 83691,81309 82566,81309 82566,82179 81723,82179 81723,83243 81060,83243 81060,83877 79992,83877 79992,84980 79337,84980 79337,85411 78114,85411 78114,86238 77221,86238 77221,87313 76500,87313 76500,87952 75453,87952 75453,87975 74010,87975 74010,88765 73083,88765 73083,89617 72180,89617 72180,89832 70914,89832 70914,90763 70039,90763 70039,91265 68933,91265 68933,92210 68028,92210 68028,92766 66933,92766 66933,92542 65528,92542 65528,93170 64470,93170 64470,94050 63485,94050 63485,93668 62085,93668 62085,94158 60969,94158 60969,94683 59853,94683 59853,95319 58749,95319 58749,94795 57397,94795 57397,95443 56285,95443 56285,95169 55016,95169 55016,95474 53839,95474 53839,96296 52703,96296 52703,95837 51443,95837 51443,95649 50222,95649 50222,96430 49031,96430 49031,95715 47812,95715 47812,95879 46601,95879 46601,95923 45386,95923 45386,95865 44173,95865 44173,96177 42919,96177 42919,95929 41716,95929 41716,95238 40590,95238 40590,95629 39287,95629 39287,94785 38215,94785 38215,94842 36959,94842 36959,94661 35747,94661 35747,94112 34637,94112 34637,93661 33507,93661 33507,93186 32389,93186 32389,92626 31308,92626 31308,92321 30130,92321 30130,92159 28881,92159 28881,91604 27796,91604 27796,90799 26839,90799 26839,90474 25643,90474 25643,89627 24726,89627 24726,89243 23549,89243 23549,88706 22452,88706 22452,88001 21460,88001 21460,87054 20640,87054 20640,86279 19712,86279 19712,86148 18282,86148 18282,85163 17507,85163 17507,84477 16489,84477 16489,83628 15610,83628 15610,83004 14517,83004 14517,82122 13664,82122 13664,81206 12846,81206 12846,80159 12179,80159 12179,79004 11655,79004 11655,78418 10450,78418 10450,77284 9917,77284 9917,76276 9232,76276 9232,75470 8255,75470 8255,74311 7790,74311 7790,73016 7571,73016 7571,72200 6572,72200 6572,71254 5764,71254 5764,70120 5295,70120 5295,69054 4695,69054 4695,68039 3974,68039 3974,66691 4014,66691 4014,65504 3717,65504 3717,64561 2771,64561 2771,63382 2440,63382 2440,62069 2558,62069 2558,60870 2363,60870 2363,59761 1834,59761 1834,58571 1614,58571 1614,57417 1220,57417 1220,56286 644,56286 644,55015 893,55015 893,53846 485,53846 485,52617 556,52617 556,51442 0,51442 0,50204 310,50204 310,48984 662,48984 662,48446 92893,48446 92893,46573 546,46573 546,45347 242,45347 242,44167 725,44167 725,42924 449,42924 449,41767 965,41767 965,40482 567,40482 567,39233 535,39233 535,38023 744,38023 744,36980 1660,36980 1660,35805 1955,35805 1955,34580 2082,34580 2082,33482 2642,33482 2642,32296 2920,32296 2920,31233 3540,31233 3540,29855 3361,29855 3361,29068 4619,29068 4619,27612 4350,27612 4350,26878 5621,26878 5621,25828 6212,25828 6212,24571 6434,24571 6434,23656 7269,23656 7269,22637 7916,22637 7916,21300 8088,21300 8088,20235 8697,20235 8697,19444 9684,19444 9684,18393 10313,18393 10313,17569 11230,17569 11230,16722 12106,16722 12106,15364 12417,15364 12417,15021 13831,15021 13831,14067 14586,14067 14586,13373 15596,13373 15596,11967 15960,11967 15960,11390 17078,11390 17078,10761 18136,10761 18136,10075 19140,10075 19140,9401 20149,9401 20149,8842 21233,8842 21233,7803 21997,7803 21997,7341 23142,7341 23142,6977 24332,6977 24332,5888 25110,5888 25110,5290 26173,5290 26173,5302 27532,5302 27532,3934 28236,3934 28236,4083 29631,4083 29631,3375 30654,3375 30654,2604 31669,2604 31669,2700 32994,2700 32994,2388 34167,2388 34167,1803 35262,1803 35262,1423 36422,1423 36422,1016 37581,1016 37581,951 38815,951 38815,1064 40071,1064 40071,473 41207,473 41207,902 42487,902 42487,318 43642,318 43642,243 44856,243 44856,367 46079,367 46079,450 47291,450 47291,0 48502,0 48502,565 49704,565 49704,607 50909,607 50909,13 52168,13 52168,429 53353,429 53353,1000 54503,1000 54503,974 55727,974 55727,1376 56883,1376 56883,844 58228,844 58228,1243 59391,1243 59391,2224 60393,2224 60393,2006 61712,2006 61712,2298 62897,2298 62897,2365 64166,2365 64166,2961 65253,2961 65253,3884 66198,3884 66198,4011 67463,4011 67463,4405 68626,4405 68626,4835 69778,4835 69778,5799 70654,5799 70654,6502 71651,6502 71651,6708 72939,6708 72939,7306 74008,7306 74008,8248 74850,8248 74850,8948 75844,8948 75844,9415 77012,9415 77012,10000 78108,10000 78108,11126 78770,11126 78770,12245 79408,12245 79408,12767 80565,12767 80565,13353 81688,13353 81688,14658 82107,14658 82107,15609 82858,15609 82858,16406 83775,16406 83775,16856 85113,16856 85113,17834 85854,17834 85854,19285 85973,19285 85973,20199 86765,20199 86765,21037 87677,21037 87677,21981 88451,21981 88451,22879 89315,22879 89315,23865 90053,23865 90053,25199 90169,25199 90169,26372 90539,26372 90539,27169 91664,27169 91664,28574 91526,28574 91526,29524 92374,29524 92374,30667 92787,30667 92787,31724 93435,31724 93435,32827 93983,32827 93983,34190 93711,34190 93711,35225 94494,35225 94494,36369 94941,36369 94941,37591 95079,37591 95079,38855 94967,38855 94967,40058 95100,40058 95100,41164 95882,41164 95882,42402 95823,42402 95823,43633 95718,43633 95718,44821 96091,44821 96091,46030 96289,46030 96289,47261 95741,47261 95741,48468" style="fill:lime" />
  <circle cx="95895" cy="48468" r="300" style="fill:red" />
  <circle cx="95895" cy="49695" r="300" style="fill:red" />
  <circle cx="96430" cy="49695" r="300" style="fill:red" />
  <circle cx="96430" cy="50876" r="300" style="fill:red" />
  <circle cx="95657" cy="50876" r="300" style="fill:red" />
  <circle cx="95657" cy="52087" r="300" style="fill:red" />
  <circle cx="95669" cy="52087" r="300" style="fill:red" />
  <circle cx="95669" cy="53294" r="300" style="fill:red" />
  <circle cx="95599" cy="53294" r="300" style="fill:red" />
  <circle cx="95599" cy="54484" r="300" style="fill:red" />
  <circle cx="95376" cy="54484" r="300" style="fill:red" />
  <circle cx="95376" cy="55758" r="300" style="fill:red" />
  <circle cx="95695" cy="55758" r="300" style="fill:red" />
  <circle cx="95695" cy="56958" r="300" style="fill:red" />
  <circle cx="95479" cy="56958" r="300" style="fill:red" />
  <circle cx="95479" cy="58022" r="300" style="fill:red" />
  <circle cx="94621" cy="58022" r="300" style="fill:red" />
  <circle cx="94621" cy="59387" r="300" style="fill:red" />
  <circle cx="95152" cy="59387" r="300" style="fill:red" />
  <circle cx="95152" cy="60463" r="300" style="fill:red" />
  <circle cx="94437" cy="60463" r="300" style="fill:red" />
  <circle cx="94437" cy="61752" r="300" style="fill:red" />
  <circle cx="94519" cy="61752" r="300" style="fill:red" />
  <circle cx="94519" cy="62741" r="300" style="fill:red" />
  <circle cx="93594" cy="62741" r="300" style="fill:red" />
  <circle cx="93594" cy="63966" r="300" style="fill:red" />
  <circle cx="93435" cy="63966" r="300" style="fill:red" />
  <circle cx="93435" cy="65035" r="300" style="fill:red" />
  <circle cx="92827" cy="65035" r="300" style="fill:red" />
  <circle cx="92827" cy="66216" r="300" style="fill:red" />
  <circle cx="92519" cy="66216" r="300" style="fill:red" />
  <circle cx="92519" cy="67525" r="300" style="fill:red" />
  <circle cx="92482" cy="67525" r="300" style="fill:red" />
  <circle cx="92482" cy="68363" r="300" style="fill:red" />
  <circle cx="91382" cy="68363" r="300" style="fill:red" />
  <circle cx="91382" cy="69387" r="300" style="fill:red" />
  <circle cx="90725" cy="69387" r="300" style="fill:red" />
  <circle cx="90725" cy="70803" r="300" style="fill:red" />
  <circle cx="90820" cy="70803" r="300" style="fill:red" />
  <circle cx="90820" cy="71501" r="300" style="fill:red" />
  <circle cx="89567" cy="71501" r="300" style="fill:red" />
  <circle cx="89567" cy="72804" r="300" style="fill:red" />
  <circle cx="89398" cy="72804" r="300" style="fill:red" />
  <circle cx="89398" cy="73959" r="300" style="fill:red" />
  <circle cx="88946" cy="73959" r="300" style="fill:red" />
  <circle cx="88946" cy="74704" r="300" style="fill:red" />
  <circle cx="87861" cy="74704" r="300" style="fill:red" />
  <circle cx="87861" cy="76112" r="300" style="fill:red" />
  <circle cx="87756" cy="76112" r="300" style="fill:red" />
  <circle cx="87756" cy="77086" r="300" style="fill:red" />
  <circle cx="87006" cy="77086" r="300" style="fill:red" />
  <circle cx="87006" cy="77661" r="300" style="fill:red" />
  <circle cx="85752" cy="77661" r="300" style="fill:red" />
  <circle cx="85752" cy="78972" r="300" style="fill:red" />
  <circle cx="85436" cy="78972" r="300" style="fill:red" />
  <circle cx="85436" cy="79924" r="300" style="fill:red" />
  <circle cx="84663" cy="79924" r="300" style="fill:red" />
  <circle cx="84663" cy="80697" r="300" style="fill:red" />
  <circle cx="83691" cy="80697" r="300" style="fill:red" />
  <circle cx="83691" cy="81309" r="300" style="fill:red" />
  <circle cx="82566" cy="81309" r="300" style="fill:red" />
  <circle cx="82566" cy="82179" r="300" style="fill:red" />
  <circle cx="81723" cy="82179" r="300" style="fill:red" />
  <circle cx="81723" cy="83243" r="300" style="fill:red" />
  <circle cx="81060" cy="83243" r="300" style="fill:red" />
  <circle cx="81060" cy="83877" r="300" style="fill:red" />
  <circle cx="79992" cy="83877" r="300" style="fill:red" />
  <circle cx="79992" cy="84980" r="300" style="fill:red" />
  <circle cx="79337" cy="84980" r="300" style="fill:red" />
  <circle cx="79337" cy="85411" r="300" style="fill:red" />
  <circle cx="78114" cy="85411" r="300" style="fill:red" />
  <circle cx="78114" cy="86238" r="300" style="fill:red" />
  <circle cx="77221" cy="86238" r="300" style="fill:red" />
  <circle cx="77221" cy="87313" r="300" style="fill:red" />
  <circle cx="76500" cy="87313" r="300" style="fill:red" />
  <circle cx="76500" cy="87952" r="300" style="fill:red" />
  <circle cx="75453" cy="87952" r="300" style="fill:red" />
  <circle cx="75453" cy="87975" r="300" style="fill:red" />
  <circle cx="74010" cy="87975" r="300" style="fill:red" />
  <circle cx="74010" cy="88765" r="300" style="fill:red" />
  <circle cx="73083" cy="88765" r="300" style="fill:red" />
  <circle cx="73083" cy="89617" r="300" style="fill:red" />
  <circle cx="72180" cy="89617" r="300" style="fill:red" />
  <circle cx="72180" cy="89832" r="300" style="fill:red" />
  <circle cx="70914" cy="89832" r="300" style="fill:red" />
  <circle cx="70914" cy="90763" r="300" style="fill:red" />
  <circle cx="70039" cy="90763" r="300" style="fill:red" />
  <circle cx="70039" cy="91265" r="300" style="fill:red" />
  <circle cx="68933" cy="91265" r="300" style="fill:red" />
  <circle cx="68933" cy="92210" r="300" style="fill:red" />
  <circle cx="68028" cy="92210" r="300" style="fill:red" />
  <circle cx="68028" cy="92766" r="300" style="fill:red" />
  <circle cx="66933" cy="92766" r="300" style="fill:red" />
  <circle cx="66933" cy="92542" r="300" style="fill:red" />
  <circle cx="65528" cy="92542" r="300" style="fill:red" />
  <circle cx="65528" cy="93170" r="300" style="fill:red" />
  <circle cx="64470" cy="93170" r="300" style="fill:red" />
  <circle cx="64470" cy="94050" r="300" style="fill:red" />
  <circle cx="63485" cy="94050" r="300" style="fill:red" />
  <circle cx="63485" cy="93668" r="300" style="fill:red" />
  <circle cx="62085" cy="93668" r="300" style="fill:red" />
  <circle cx="62085" cy="94158" r="300" style="fill:red" />
  <circle cx="60969" cy="94158" r="300" style="fill:red" />
  <circle cx="60969" cy="94683" r="300" style="fill:red" />
  <circle cx="59853" cy="94683" r="300" style="fill:red" />
  <circle cx="59853" cy="95319" r="300" style="fill:red" />
  <circle cx="58749" cy="95319" r="300" style="fill:red" />
  <circle cx="58749" cy="94795" r="300" style="fill:red" />
  <circle cx="57397" cy="94795" r="300" style="fill:red" />
  <circle cx="57397" cy="95443" r="300" style="fill:red" />
  <circle cx="56285" cy="95443" r="300" style="fill:red" />
  <circle cx="56285" cy="95169" r="300" style="fill:red" />
  <circle cx="55016" cy="95169" r="300" style="fill:red" />
  <circle cx="55016" cy="95474" r="300" style="fill:red" />
  <circle cx="53839" cy="95474" r="300" style="fill:red" />
  <circle cx="53839" cy="96296" r="300" style="fill:red" />
  <circle cx="52703" cy="96296" r="300" style="fill:red" />
  <circle cx="52703" cy="95837" r="300" style="fill:red" />
  <circle cx="51443" cy="95837" r="300" style="fill:red" />
  <circle cx="51443" cy="95649" r="300" style="fill:red" />
  <circle cx="50222" cy="95649" r="300" style="fill:red" />
  <circle cx="50222" cy="96430" r="300" style="fill:red" />
  <circle cx="49031" cy="96430" r="300" style="fill:red" />
  <circle cx="49031" cy="95715" r="300" style="fill:red" />
  <circle cx="47812" cy="95715" r="300" style="fill:red" />
  <circle cx="47812" cy="95879" r="300" style="fill:red" />
  <circle cx="46601" cy="95879" r="300" style="fill:red" />
  <circle cx="46601" cy="95923" r="300" style="fill:red" />
  <circle cx="45386" cy="95923" r="300" style="fill:red" />
  <circle cx="45386" cy="95865" r="300" style="fill:red" />
  <circle cx="44173" cy="95865" r="300" style="fill:red" />
  <circle cx="44173" cy="96177" r="300" style="fill:red" />
  <circle cx="42919" cy="96177" r="300" style="fill:red" />
  <circle cx="42919" cy="95929" r="300" style="fill:red" />
  <circle cx="41716" cy="95929" r="300" style="fill:red" />
  <circle cx="41716" cy="95238" r="300" style="fill:red" />
  <circle cx="40590" cy="95238" r="300" style="fill:red" />
  <circle cx="40590" cy="95629" r="300" style="fill:red" />
  <circle cx="39287" cy="95629" r="300" style="fill:red" />
  <circle cx="39287" cy="94785" r="300" style="fill:red" />
  <circle cx="38215" cy="94785" r="300" style="fill:red" />
  <circle cx="38215" cy="94842" r="300" style="fill:red" />
  <circle cx="36959" cy="94842" r="300" style="fill:red" />
  <circle cx="36959" cy="94661" r="300" style="fill:red" />
  <circle cx="35747" cy="94661" r="300" style="fill:red" />
  <circle cx="35747" cy="94112" r="300" style="fill:red" />
  <circle cx="34637" cy="94112" r="300" style="fill:red" />
  <circle cx="34637" cy="93661" r="300" style="fill:red" />
  <circle cx="33507" cy="93661" r="300" style="fill:red" />
  <circle cx="33507" cy="93186" r="300" style="fill:red" />
  <circle cx="32389" cy="93186" r="300" style="fill:red" />
  <circle cx="32389" cy="92626" r="300" style="fill:red" />
  <circle cx="31308" cy="92626" r="300" style="fill:red" />
  <circle cx="31308" cy="92321" r="300" style="fill:red" />
  <circle cx="30130" cy="92321" r="300" style="fill:red" />
  <circle cx="30130" cy="92159" r="300" style="fill:red" />
  <circle cx="28881" cy="92159" r="300" style="fill:red" />
  <circle cx="28881" cy="91604" r="300" style="fill:red" />
  <circle cx="27796" cy="91604" r="300" style="fill:red" />
  <circle cx="27796" cy="90799" r="300" style="fill:red" />
  <circle cx="26839" cy="90799" r="300" style="fill:red" />
  <circle cx="26839" cy="90474" r="300" style="fill:red" />
  <circle cx="25643" cy="90474" r="300" style="fill:red" />
  <circle cx="25643" cy="89627" r="300" style="fill:red" />
  <circle cx="24726" cy="89627" r="300" style="fill:red" />
  <circle cx="24726" cy="89243" r="300" style="fill:red" />
  <circle cx="23549" cy="89243" r="300" style="fill:red" />
  <circle cx="23549" cy="88706" r="300" style="fill:red" />
  <circle cx="22452" cy="88706" r="300" style="fill:red" />
  <circle cx="22452" cy="88001" r="300" style="fill:red" />
  <circle cx="21460" cy="88001" r="300" style="fill:red" />
  <circle cx="21460" cy="87054" r="300" style="fill:red" />
  <circle cx="20640" cy="87054" r="300" style="fill:red" />
  <circle cx="20640" cy="86279" r="300" style="fill:red" />
  <circle cx="19712" cy="86279" r="300" style="fill:red" />
  <circle cx="19712" cy="86148" r="300" style="fill:red" />
  <circle cx="18282" cy="86148" r="300" style="fill:red" />
  <circle cx="18282" cy="85163" r="300" style="fill:red" />
  <circle cx="17507" cy="85163" r="300" style="fill:red" />
  <circle cx="17507" cy="84477" r="300" style="fill:red" />
  <circle cx="16489" cy="84477" r="300" style="fill:red" />
  <circle cx="16489" cy="83628" r="300" style="fill:red" />
  <circle cx="15610" cy="83628" r="300" style="fill:red" />
  <circle cx="15610" cy="83004" r="300" style="fill:red" />
  <circle cx="14517" cy="83004" r="300" style="fill:red" />
  <circle cx="14517" cy="82122" r="300" style="fill:red" />
  <circle cx="13664" cy="82122" r="300" style="fill:red" />
  <circle cx="13664" cy="81206" r="300" style="fill:red" />
  <circle cx="12846" cy="81206" r="300" style="fill:red" />
  <circle cx="12846" cy="80159" r="300" style="fill:red" />
  <circle cx="12179" cy="80159" r="300" style="fill:red" />
  <circle cx="12179" cy="79004" r="300" style="fill:red" />
  <circle cx="11655" cy="79004" r="300" style="fill:red" />
  <circle cx="11655" cy="78418" r="300" style="fill:red" />
  <circle cx="10450" cy="78418" r="300" style="fill:red" />
  <circle cx="10450" cy="77284" r="300" style="fill:red" />
  <circle cx="9917" cy="77284" r="300" style="fill:red" />
  <circle cx="9917" cy="76276" r="300" style="fill:red" />
  <circle cx="9232" cy="76276" r="300" style="fill:red" />
  <circle cx="9232" cy="75470" r="300" style="fill:red" />
  <circle cx="8255" cy="75470" r="300" style="fill:red" />
  <circle cx="8255" cy="74311" r="300" style="fill:red" />
  <circle cx="7790" cy="74311" r="300" style="fill:red" />
  <circle cx="7790" cy="73016" r="300" style="fill:red" />
  <circle cx="7571" cy="73016" r="300" style="fill:red" />
  <circle cx="7571" cy="72200" r="300" style="fill:red" />
  <circle cx="6572" cy="72200" r="300" style="fill:red" />
  <circle cx="6572" cy="71254" r="300" style="fill:red" />
  <circle cx="5764" cy="71254" r="300" style="fill:red" />
  <circle cx="5764" cy="70120" r="300" style="fill:red" />
  <circle cx="5295" cy="70120" r="300" style="fill:red" />
  <circle cx="5295" cy="69054" r="300" style="fill:red" />
  <circle cx="4695" cy="69054" r="300" style="fill:red" />
  <circle cx="4695" cy="68039" r="300" style="fill:red" />
  <circle cx="3974" cy="68039" r="300" style="fill:red" />
  <circle cx="3974" cy="66691" r="300" style="fill:red" />
  <circle cx="4014" cy="66691" r="300" style="fill:red" />
  <circle cx="4014" cy="65504" r="300" style="fill:red" />
  <circle cx="3717" cy="65504" r="300" style="fill:red" />
  <circle cx="3717" cy="64561" r="300" style="fill:red" />
  <circle cx="2771" cy="64561" r="300" style="fill:red" />
  <circle cx="2771" cy="63382" r="300" style="fill:red" />
  <circle cx="2440" cy="63382" r="300" style="fill:red" />
  <circle cx="2440" cy="62069" r="300" style="fill:red" />
  <circle cx="2558" cy="62069" r="300" style="fill:red" />
  <circle cx="2558" cy="60870" r="300" style="fill:red" />
  <circle cx="2363" cy="60870" r="300" style="fill:red" />
  <circle cx="2363" cy="59761" r="300" style="fill:red" />
  <circle cx="1834" cy="59761" r="300" style="fill:red" />
  <circle cx="1834" cy="58571" r="300" style="fill:red" />
  <circle cx="1614" cy="58571" r="300" style="fill:red" />
  <circle cx="1614" cy="57417" r="300" style="fill:red" />
  <circle cx="1220" cy="57417" r="300" style="fill:red" />
  <circle cx="1220" cy="56286" r="300" style="fill:red" />
  <circle cx="644" cy="56286" r="300" style="fill:red" />
  <circle cx="644" cy="55015" r="300" style="fill:red" />
  <circle cx="893" cy="55015" r="300" style="fill:red" />
  <circle cx="893" cy="53846" r="300" style="fill:red" />
  <circle cx="485" cy="53846" r="300" style="fill:red" />
  <circle cx="485" cy="52617" r="300" style="fill:red" />
  <circle cx="556" cy="52617" r="300" style="fill:red" />
  <circle cx="556" cy="51442" r="300" style="fill:red" />
  <circle cx="0" cy="51442" r="300" style="fill:red" />
  <circle cx="0" cy="50204" r="300" style="fill:red" />
  <circle cx="310" cy="50204" r="300" style="fill:red" />
  <circle cx="310" cy="48984" r="300" style="fill:red" />
  <circle cx="662" cy="48984" r="300" style="fill:red" />
  <circle cx="662" cy="48446" r="300" style="fill:red" />
  <circle cx="92893" cy="48446" r="300" style="fill:red" />
  <circle cx="92893" cy="46573" r="300" style="fill:red" />
  <circle cx="546" cy="46573" r="300" style="fill:red" />
  <circle cx="546" cy="45347" r="300" style="fill:red" />
  <circle cx="242" cy="45347" r="300" style="fill:red" />
  <circle cx="242" cy="44167" r="300" style="fill:red" />
  <circle cx="725" cy="44167" r="300" style="fill:red" />
  <circle cx="725" cy="42924" r="300" style="fill:red" />
  <circle cx="449" cy="42924" r="300" style="fill:red" />
  <circle cx="449" cy="41767" r="300" style="fill:red" />
  <circle cx="965" cy="41767" r="300" style="fill:red" />
  <circle cx="965" cy="40482" r="300" style="fill:red" />
  <circle cx="567" cy="40482" r="300" style="fill:red" />
  <circle cx="567" cy="39233" r="300" style="fill:red" />
  <circle cx="535" cy="39233" r="300" style="fill:red" />
  <circle cx="535" cy="38023" r="300" style="fill:red" />
  <circle cx="744" cy="38023" r="300" style="fill:red" />
  <circle cx="744" cy="36980" r="300" style="fill:red" />
  <circle cx="1660" cy="36980" r="300" style="fill:red" />
  <circle cx="1660" cy="35805" r="300" style="fill:red" />
  <circle cx="1955" cy="35805" r="300" style="fill:red" />
  <circle cx="1955" cy="34580" r="300" style="fill:red" />
  <circle cx="2082" cy="34580" r="300" style="fill:red" />
  <circle cx="2082" cy="33482" r="300" style="fill:red" />
  <circle cx="2642" cy="33482" r="300" style="fill:red" />
  <circle cx="2642" cy="32296" r="300" style="fill:red" />
  <circle cx="2920" cy="32296" r="300" style="fill:red" />
  <circle cx="2920" cy="31233" r="300" style="fill:red" />
  <circle cx="3540" cy="31233" r="300" style="fill:red" />
  <circle cx="3540" cy="29855" r="300" style="fill:red" />
  <circle cx="3361" cy="29855" r="300" style="fill:red" />
  <circle cx="3361" cy="29068" r="300" style="fill:red" />
  <circle cx="4619" cy="29068" r="300" style="fill:red" />
  <circle cx="4619" cy="27612" r="300" style="fill:red" />
  <circle cx="4350" cy="27612" r="300" style="fill:red" />
  <circle cx="4350" cy="26878" r="300" style="fill:red" />
  <circle cx="5621" cy="26878" r="300" style="fill:red" />
  <circle cx="5621" cy="25828" r="300" style="fill:red" />
  <circle cx="6212" cy="25828" r="300" style="fill:red" />
  <circle cx="6212" cy="24571" r="300" style="fill:red" />
  <circle cx="6434" cy="24571" r="300" style="fill:red" />
  <circle cx="6434" cy="23656" r="300" style="fill:red" />
  <circle cx="7269" cy="23656" r="300" style="fill:red" />
  <circle cx="7269" cy="22637" r="300" style="fill:red" />
  <circle cx="7916" cy="22637" r="300" style="fill:red" />
  <circle cx="7916" cy="21300" r="300" style="fill:red" />
  <circle cx="8088" cy="21300" r="300" style="fill:red" />
  <circle cx="8088" cy="20235" r="300" style="fill:red" />
  <circle cx="8697" cy="20235" r="300" style="fill:red" />
  <circle cx="8697" cy="19444" r="300" style="fill:red" />
  <circle cx="9684" cy="19444" r="300" style="fill:red" />
  <circle cx="9684" cy="18393" r="300" style="fill:red" />
  <circle cx="10313" cy="18393" r="300" style="fill:red" />
  <circle cx="10313" cy="17569" r="300" style="fill:red" />
  <circle cx="11230" cy="17569" r="300" style="fill:red" />
  <circle cx="11230" cy="16722" r="300" style="fill:red" />
  <circle cx="12106" cy="16722" r="300" style="fill:red" />
  <circle cx="12106" cy="15364" r="300" style="fill:red" />
  <circle cx="12417" cy="15364" r="300" style="fill:red" />
  <circle cx="12417" cy="15021" r="300" style="fill:red" />
  <circle cx="13831" cy="15021" r="300" style="fill:red" />
  <circle cx="13831" cy="14067" r="300" style="fill:red" />
  <circle cx="14586" cy="14067" r="300" style="fill:red" />
  <circle cx="14586" cy="13373" r="300" style="fill:red" />
  <circle cx="15596" cy="13373" r="300" style="fill:red" />
  <circle cx="15596" cy="11967" r="300" style="fill:red" />
  <circle cx="15960" cy="11967" r="300" style="fill:red" />
  <circle cx="15960" cy="11390" r="300" style="fill:red" />
  <circle cx="17078" cy="11390" r="300" style="fill:red" />
  <circle cx="17078" cy="10761" r="300" style="fill:red" />
  <circle cx="18136" cy="10761" r="300" style="fill:red" />
  <circle cx="18136" cy="10075" r="300" style="fill:red" />
  <circle cx="19140" cy="10075" r="300" style="fill:red" />
  <circle cx="19140" cy="9401" r="300" style="fill:red" />
  <circle cx="20149" cy="9401" r="300" style="fill:red" />
  <circle cx="20149" cy="8842" r="300" style="fill:red" />
  <circle cx="21233" cy="8842" r="300" style="fill:red" />
  <circle cx="21233" cy="7803" r="300" style="fill:red" />
  <circle cx="21997" cy="7803" r="300" style="fill:red" />
  <circle cx="21997" cy="7341" r="300" style="fill:red" />
  <circle cx="23142" cy="7341" r="300" style="fill:red" />
  <circle cx="23142" cy="6977" r="300" style="fill:red" />
  <circle cx="24332" cy="6977" r="300" style="fill:red" />
  <circle cx="24332" cy="5888" r="300" style="fill:red" />
  <circle cx="25110" cy="5888" r="300" style="fill:red" />
  <circle cx="25110" cy="5290" r="300" style="fill:red" />
  <circle cx="26173" cy="5290" r="300" style="fill:red" />
  <circle cx="26173" cy="5302" r="300" style="fill:red" />
  <circle cx="27532" cy="5302" r="300" style="fill:red" />
  <circle cx="27532" cy="3934" r="300" style="fill:red" />
  <circle cx="28236" cy="3934" r="300" style="fill:red" />
  <circle cx="28236" cy="4083" r="300" style="fill:red" />
  <circle cx="29631" cy="4083" r="300" style="fill:red" />
  <circle cx="29631" cy="3375" r="300" style="fill:red" />
  <circle cx="30654" cy="3375" r="300" style="fill:red" />
  <circle cx="30654" cy="2604" r="300" style="fill:red" />
  <circle cx="31669" cy="2604" r="300" style="fill:red" />
  <circle cx="31669" cy="2700" r="300" style="fill:red" />
  <circle cx="32994" cy="2700" r="300" style="fill:red" />
  <circle cx="32994" cy="2388" r="300" style="fill:red" />
  <circle cx="34167" cy="2388" r="300" style="fill:red" />
  <circle cx="34167" cy="1803" r="300" style="fill:red" />
  <circle cx="35262" cy="1803" r="300" style="fill:red" />
  <circle cx="35262" cy="1423" r="300" style="fill:red" />
  <circle cx="36422" cy="1423" r="300" style="fill:red" />
  <circle cx="36422" cy="1016" r="300" style="fill:red" />
  <circle cx="37581" cy="1016" r="300" style="fill:red" />
  <circle cx="37581" cy="951" r="300" style="fill:red" />
  <circle cx="38815" cy="951" r="300" style="fill:red" />
  <circle cx="38815" cy="1064" r="300" style="fill:red" />
  <circle cx="40071" cy="1064" r="300" style="fill:red" />
  <circle cx="40071" cy="473" r="300" style="fill:red" />
  <circle cx="41207" cy="473" r="300" style="fill:red" />
  <circle cx="41207" cy="902" r="300" style="fill:red" />
  <circle cx="42487" cy="902" r="300" style="fill:red" />
  <circle cx="42487" cy="318" r="300" style="fill:red" />
  <circle cx="43642" cy="318" r="300" style="fill:red" />
  <circle cx="43642" cy="243" r="300" style="fill:red" />
  <circle cx="44856" cy="243" r="300" style="fill:red" />
  <circle cx="44856" cy="367" r="300" style="fill:red" />
  <circle cx="46079" cy="367" r="300" style="fill:red" />
  <circle cx="46079" cy="450" r="300" style="fill:red" />
  <circle cx="47291" cy="450" r="300" style="fill:red" />
  <circle cx="47291" cy="0" r="300" style="fill:red" />
  <circle cx="48502" cy="0" r="300" style="fill:red" />
  <circle cx="48502" cy="565" r="300" style="fill:red" />
  <circle cx="49704" cy="565" r="300" style="fill:red" />
  <circle cx="49704" cy="607" r="300" style="fill:red" />
  <circle cx="50909" cy="607" r="300" style="fill:red" />
  <circle cx="50909" cy="13" r="300" style="fill:red" />
  <circle cx="52168" cy="13" r="300" style="fill:red" />
  <circle cx="52168" cy="429" r="300" style="fill:red" />
  <circle cx="53353" cy="429" r="300" style="fill:red" />
  <circle cx="53353" cy="1000" r="300" style="fill:red" />
  <circle cx="54503" cy="1000" r="300" style="fill:red" />
  <circle cx="54503" cy="974" r="300" style="fill:red" />
  <circle cx="55727" cy="974" r="300" style="fill:red" />
  <circle cx="55727" cy="1376" r="300" style="fill:red" />
  <circle cx="56883" cy="1376" r="300" style="fill:red" />
  <circle cx="56883" cy="844" r="300" style="fill:red" />
  <circle cx="58228" cy="844" r="300" style="fill:red" />
  <circle cx="58228" cy="1243" r="300" style="fill:red" />
  <circle cx="59391" cy="1243" r="300" style="fill:red" />
  <circle cx="59391" cy="2224" r="300" style="fill:red" />
  <circle cx="60393" cy="2224" r="300" style="fill:red" />
  <circle cx="60393" cy="2006" r="300" style="fill:red" />
  <circle cx="61712" cy="2006" r="300" style="fill:red" />
  <circle cx="61712" cy="2298" r="300" style="fill:red" />
  <circle cx="62897" cy="2298" r="300" style="fill:red" />
  <circle cx="62897" cy="2365" r="300" style="fill:red" />
  <circle cx="64166" cy="2365" r="300" style="fill:red" />
  <circle cx="64166" cy="2961" r="300" style="fill:red" />
  <circle cx="65253" cy="2961" r="300" style="fill:red" />
  <circle cx="65253" cy="3884" r="300" style="fill:red" />
  <circle cx="66198" cy="3884" r="300" style="fill:red" />
  <circle cx="66198" cy="4011" r="300" style="fill:red" />
  <circle cx="67463" cy="4011" r="300" style="fill:red" />
  <circle cx="67463" cy="4405" r="300" style="fill:red" />
  <circle cx="68626" cy="4405" r="300" style="fill:red" />
  <circle cx="68626" cy="4835" r="300" style="fill:red" />
  <circle cx="69778" cy="4835" r="300" style="fill:red" />
  <circle cx="69778" cy="5799" r="300" style="fill:red" />
  <circle cx="70654" cy="5799" r="300" style="fill:red" />
  <circle cx="70654" cy="6502" r="300" style="fill:red" />
  <circle cx="71651" cy="6502" r="300" style="fill:red" />
  <circle cx="71651" cy="6708" r="300" style="fill:red" />
  <circle cx="72939" cy="6708" r="300" style="fill:red" />
  <circle cx="72939" cy="7306" r="300" style="fill:red" />
  <circle cx="74008" cy="7306" r="300" style="fill:red" />
  <circle cx="74008" cy="8248" r="300" style="fill:red" />
  <circle cx="74850" cy="8248" r="300" style="fill:red" />
  <circle cx="74850" cy="8948" r="300" style="fill:red" />
  <circle cx="75844" cy="8948" r="300" style="fill:red" />
  <circle cx="75844" cy="9415" r="300" style="fill:red" />
  <circle cx="77012" cy="9415" r="300" style="fill:red" />
  <circle cx="77012" cy="10000" r="300" style="fill:red" />
  <circle cx="78108" cy="10000" r="300" style="fill:red" />
  <circle cx="78108" cy="11126" r="300" style="fill:red" />
  <circle cx="78770" cy="11126" r="300" style="fill:red" />
  <circle cx="78770" cy="12245" r="300" style="fill:red" />
  <circle cx="79408" cy="12245" r="300" style="fill:red" />
  <circle cx="79408" cy="12767" r="300" style="fill:red" />
  <circle cx="80565" cy="12767" r="300" style="fill:red" />
  <circle cx="80565" cy="13353" r="300" style="fill:red" />
  <circle cx="81688" cy="13353" r="300" style="fill:red" />
  <circle cx="81688" cy="14658" r="300" style="fill:red" />
  <circle cx="82107" cy="14658" r="300" style="fill:red" />
  <circle cx="82107" cy="15609" r="300" style="fill:red" />
  <circle cx="82858" cy="15609" r="300" style="fill:red" />
  <circle cx="82858" cy="16406" r="300" style="fill:red" />
  <circle cx="83775" cy="16406" r="300" style="fill:red" />
  <circle cx="83775" cy="16856" r="300" style="fill:red" />
  <circle cx="85113" cy="16856" r="300" style="fill:red" />
  <circle cx="85113" cy="17834" r="300" style="fill:red" />
  <circle cx="85854" cy="17834" r="300" style="fill:red" />
  <circle cx="85854" cy="19285" r="300" style="fill:red" />
  <circle cx="85973" cy="19285" r="300" style="fill:red" />
  <circle cx="85973" cy="20199" r="300" style="fill:red" />
  <circle cx="86765" cy="20199" r="300" style="fill:red" />
  <circle cx="86765" cy="21037" r="300" style="fill:red" />
  <circle cx="87677" cy="21037" r="300" style="fill:red" />
  <circle cx="87677" cy="21981" r="300" style="fill:red" />
  <circle cx="88451" cy="21981" r="300" style="fill:red" />
  <circle cx="88451" cy="22879" r="300" style="fill:red" />
  <circle cx="89315" cy="22879" r="300" style="fill:red" />
  <circle cx="89315" cy="23865" r="300" style="fill:red" />
  <circle cx="90053" cy="23865" r="300" style="fill:red" />
  <circle cx="90053" cy="25199" r="300" style="fill:red" />
  <circle cx="90169" cy="25199" r="300" style="fill:red" />
  <circle cx="90169" cy="26372" r="300" style="fill:red" />
  <circle cx="90539" cy="26372" r="300" style="fill:red" />
  <circle cx="90539" cy="27169" r="300" style="fill:red" />
  <circle cx="91664" cy="27169" r="300" style="fill:red" />
  <circle cx="91664" cy="28574" r="300" style="fill:red" />
  <circle cx="91526" cy="28574" r="300" style="fill:red" />
  <circle cx="91526" cy="29524" r="300" style="fill:red" />
  <circle cx="92374" cy="29524" r="300" style="fill:red" />
  <circle cx="92374" cy="30667" r="300" style="fill:red" />
  <circle cx="92787" cy="30667" r="300" style="fill:red" />
  <circle cx="92787" cy="31724" r="300" style="fill:red" />
  <circle cx="93435" cy="31724" r="300" style="fill:red" />
  <circle cx="93435" cy="32827" r="300" style="fill:red" />
  <circle cx="93983" cy="32827" r="300" style="fill:red" />
  <circle cx="93983" cy="34190" r="300" style="fill:red" />
  <circle cx="93711" cy="34190" r="300" style="fill:red" />
  <circle cx="93711" cy="35225" r="300" style="fill:red" />
  <circle cx="94494" cy="35225" r="300" style="fill:red" />
  <circle cx="94494" cy="36369" r="300" style="fill:red" />
  <circle cx="94941" cy="36369" r="300" style="fill:red" />
  <circle cx="94941" cy="37591" r="300" style="fill:red" />
  <circle cx="95079" cy="37591" r="300" style="fill:red" />
  <circle cx="95079" cy="38855" r="300" style="fill:red" />
  <circle cx="94967" cy="38855" r="300" style="fill:red" />
  <circle cx="94967" cy="40058" r="300" style="fill:red" />
  <circle cx="95100" cy="40058" r="300" style="fill:red" />
  <circle cx="95100" cy="41164" r="300" style="fill:red" />
  <circle cx="95882" cy="41164" r="300" style="fill:red" />
  <circle cx="95882" cy="42402" r="300" style="fill:red" />
  <circle cx="95823" cy="42402" r="300" style="fill:red" />
  <circle cx="95823" cy="43633" r="300" style="fill:red" />
  <circle cx="95718" cy="43633" r="300" style="fill:red" />
  <circle cx="95718" cy="44821" r="300" style="fill:red" />
  <circle cx="96091" cy="44821" r="300" style="fill:red" />
  <circle cx="96091" cy="46030" r="300" style="fill:red" />
  <circle cx="96289" cy="46030" r="300" style="fill:red" />
  <circle cx="96289" cy="47261" r="300" style="fill:red" />
  <circle cx="95741" cy="47261" r="300" style="fill:red" />
  <circle cx="95741" cy="48468" r="300" style="fill:red" />  <polygon points="92893,48446 92893,64561 2771,64561 2771,48446" style="fill:green" />  <polygon points="92893,48446 92893,64561 3717,64561 3717,48446" style="fill:blue" /></svg>
